<svg viewBox="0 0 100 33" xmlns="http://www.w3.org/2000/svg" xmlns:xlink="http://www.w3.org/1999/xlink">
<defs>
<path id="marin-logo-a" d="M99.8166 16.74V.5239H0V32.9563h99.8166z"></path>
</defs>
<g fill="none" fill-rule="evenodd">
<mask id="marin-logo-b" fill="#fff">
<use xlink:href="#marin-logo-a"></use>
</mask>
<g mask="url(#marin-logo-b)">
<path d="M99.8166 25.9152c0 1.2901-1.2544 2.564-2.5337 2.564H83.5104s-1.67-.0335-3.8819.8837c-2.3974.9942-8.527 3.6127-12.9135 3.5934-6.3337-.0273-8.6886-4.477-8.6886-4.477H2.5145C1.2653 28.4792 0 27.1994 0 25.9151V3.0504C0 1.7916 1.2378.5235 2.5145.5235H97.283c1.257 0 2.5337 1.2629 2.5337 2.5363v22.8554z" fill="#004389"></path>
<path d="M39.0023 16.6073c.2756.0189.0383-.4808-.0321-.6228-.0778-.144-.3928-1.1366-.5337-1.5463-.1347-.4159-.584-1.7788-.9249-2.7206-.3399-.935-.7005.176-.7249.3446-.032.1624-1.587 3.662-1.7539 3.993-.1606.331-.0518.5521-.0518.5521s3.7508-.0199 4.0213 0m18.8243-6.3695c0-2.8762-4.3036-2.3053-4.3036-2.3053l-.0057 4.7138s4.3093.461 4.3093-2.4085M77.094 20.8984V8.5297s-.4052-1.396-2.6332-1.396c-2.229 0-2.6331 1.396-2.6331 1.396v12.3687s.0259 1.2466 1.046 1.2466c1.0275 0 .9768 1.3054.9768 1.3054s-.0643.87.1347 1.2404c.0772.1424.4756.1236.8414.0261.3472-.0906.6482-.1948.7322-.5458.1606-.6877.1088-1.682.1088-1.682s.032-.564.7197-.564c.687 0 .7067-1.0267.7067-1.0267M96.181 5.6147c.097 1.0125.5202 1.8762-.327 1.9868-.8476.1105-1.5797.7071-1.6253 1.377-.0062.032-.0062.1033-.0062.2133-.0062.0068-.0124 14.4403 0 15.0385.0062.6354-.0643 1.2399-.9249 1.4342-.8922.2017-1.528.286-2.3508-.8182-.8217-1.1031-9.9611-12.6479-9.9611-12.6479s-.0062 7.006.0197 7.941c.0249.934.1534 1.4672.6746 1.6809.5202.2147 1.3093.695 1.3611 1.52.058.8308.2633 1.4479-.2694 1.4343-.5337-.0063-3.5264-.0776-6.057 1.4226-2.5368 1.5065-12.0036 6.1092-16.7502-.4347-3.9622-5.468-3.7892-5.8253-5.1627-8.6492-.8928-1.825-1.272-.792-1.272-.6945v4.0317s-.026 1.0586 1.0077 1.331c1.041.2797.7456 1.1367.829 1.5971.0897.462.443 1.4284-.9896 1.4159-1.4254-.0126-13.3907-.0063-13.3907-.0063s-1.0725.0911-1.5984-.2661c-.2249-.1556-.283-.4547-.3347-.7988-.1669-1.221.231-1.7595.6362-1.8307.3974-.065.4171-.7082.3726-1.1299-.084-.7532-.2063-1.5845-1.0669-1.7144h-3.5767s-.5906.0387-.9316.662c-.3409.624-.7445 1.3122-.6803 1.7339.0643.4159.4617.4285.815.5322.3472.1037.4498.604.4498.8831 0 .273.1803.8308.2062 1.1498.0249.318.2627.7464-.829.7852H21.7639s-1.1694.1885-1.33-1.2462c-.1669-1.4357-.5384-1.4357.5399-1.8899 1.0793-.4552.9891-1.597.9953-1.727.0062-.1299.0062-7.317-.0062-7.3307-.0124-.013-4.5984 11.0964-4.7782 11.6747-.173.5515-.225.519-1.0664.519l-2.1259-.0062c-.385 0-.5456-.0136-.758-.5458-.2114-.539-3.3715-11.6218-3.3715-11.6218l-1.0083 7.1359s-.2632 1.5379.7767 1.8118c1.0342.2782 1.4072.8366 1.3492 1.2781-.0518.4421.116 1.2928.116 1.2928s.1089.649-.6942.649h-.3016l-6.044.0063c-.0891 0-.7316.0262-.8922-.824-.1544-.8512-.2959-2.0523.5264-2.2728.815-.221 1.4067-1.0649 1.471-1.6552.0642-.5595 1.156-9.6821 1.1684-10.616.0196-.9419-.058-1.617-.5524-1.9418-.4938-.3243-.9373-.1493-1.0337-.7339-.0901-.5846-.3025-1.5321-.2186-1.9543 0 0 .0062-.331.5585-.3567l.2446-.0131h5.742l.1787.0062c1.3752.0388 1.2601.506 1.4389 1.4348.174.9219 3.3015 10.4212 3.3015 10.4212s3.5327-7.8561 4.5156-10.5386c.2632-.7066.558-1.2524 1.2969-1.331h4.528c.6036 0 1.0274.0074 1.2326.7145.1865.637.2508 1.1435.2705 1.2797.0186.1362.1222.9219-.2249 1.045-.3472.1241-1.298.6694-1.2461 1.5583v.0775l.0124.1624.6036 10.6805.058.4101s.0643.935.9317 1.012c.8668.0791 1.4969-1.0968 1.4969-1.0968l6.2803-14.6808s.3855-1.122 1.0917-1.4023c.713-.2718 1.484-.539 1.6575-.5065.1793.0398.7192.0461 1.1819 1.2734.456 1.2136 5.857 14.894 6.2041 15.6865.3472.7983 2.1643 1.5196 2.312-.5903l.0186-.2473.0072-10.1938c0-.1236-.0958-.617-.1481-.7533-.7643-1.9543-1.5928-1.3765-1.8177-1.9024-.2248-.526-.2373-.9869-.2694-1.5908-.0321-.6035-.0446-.9864.655-.9544l.4305.0188 10.9244.0074c.4373 0 4.5663.1225 4.573 5.447 0 5.324-2.6264 5.299-2.8648 5.4608-.2435.1692 3.6933 7.1426 4.727 7.4857.4694.1498.9249-.519 1.2461-.5777.8415-.155.8347-.9539.8347-2.253l-.0057-10.9402c0-.2918-.3793-1.3247-1.2466-1.5384-.8606-.2143-.6358-2.6558-.3974-2.8967.2052-.2074.7186-.1949 1.1746-.1949l13.7762.0074h.1357c.7062-.0074 1.502.682 2.299 1.8244.7963 1.1361 8.0414 9.7654 8.0414 9.7654s-.0072-6.688-.0072-7.052c-.0063-.3568 0-.8764-1.2524-1.3819-.9057-.3708-.687-1.8323-.7316-2.2864-.0642-.5909.5648-.8695 1.0658-.8695h.1669l6.0953-.0074c.5782 0 .514.7407.558 1.1954" fill="#FEFEFE"></path>
</g>
</g>
</svg>