<svg width="38" height="37" viewBox="0 0 38 37" fill="none" xmlns="http://www.w3.org/2000/svg">
<path d="M32.2682 0.023532C31.2337 0.0301099 30.2307 0.378533 29.4169 1.01404C28.6031 1.64955 28.0245 2.53611 27.7722 3.53439H22.9917C22.7141 2.43591 22.0425 1.47629 21.1033 0.83616C20.1642 0.196029 19.0223 -0.0804646 17.8925 0.0587228C16.7628 0.19791 15.7231 0.743179 14.9693 1.59189C14.2154 2.44061 13.7993 3.53424 13.7993 4.66692C13.7993 5.79961 14.2154 6.89324 14.9693 7.74195C15.7231 8.59067 16.7628 9.13594 17.8925 9.27512C19.0223 9.41431 20.1642 9.13782 21.1033 8.49769C22.0425 7.85755 22.7141 6.89794 22.9917 5.79946H27.7722C27.9857 6.64412 28.4337 7.412 29.0649 8.01539C29.6962 8.61878 30.4853 9.03336 31.342 9.21176C32.1988 9.39017 33.0887 9.32521 33.9102 9.02431C34.7316 8.72341 35.4514 8.1987 35.9874 7.51011C36.5234 6.82153 36.854 5.99682 36.9413 5.1302C37.0287 4.26358 36.8693 3.38999 36.4814 2.60921C36.0935 1.82842 35.4928 1.17193 34.7478 0.714706C34.0027 0.257486 33.1435 0.0179753 32.2682 0.023532V0.023532ZM18.4958 6.98862C18.023 6.98862 17.5609 6.84913 17.1678 6.5878C16.7748 6.32647 16.4684 5.95502 16.2875 5.52044C16.1066 5.08586 16.0592 4.60766 16.1515 4.14631C16.2437 3.68496 16.4713 3.26118 16.8056 2.92857C17.1399 2.59595 17.5658 2.36944 18.0295 2.27767C18.4931 2.1859 18.9737 2.233 19.4105 2.41301C19.8473 2.59302 20.2206 2.89786 20.4832 3.28897C20.7459 3.68008 20.886 4.13991 20.886 4.6103C20.886 4.92262 20.8242 5.23189 20.7041 5.52044C20.584 5.80899 20.4079 6.07118 20.1859 6.29202C19.964 6.51287 19.7005 6.68806 19.4105 6.80758C19.1205 6.9271 18.8097 6.98862 18.4958 6.98862V6.98862ZM32.2682 6.98862C31.7954 6.98862 31.3333 6.84913 30.9402 6.5878C30.5471 6.32647 30.2408 5.95502 30.0599 5.52044C29.879 5.08586 29.8316 4.60766 29.9239 4.14631C30.0161 3.68496 30.2437 3.26118 30.578 2.92857C30.9123 2.59595 31.3382 2.36944 31.8019 2.27767C32.2655 2.1859 32.7461 2.233 33.1829 2.41301C33.6196 2.59302 33.9929 2.89786 34.2556 3.28897C34.5182 3.68008 34.6584 4.13991 34.6584 4.6103C34.6584 5.24107 34.4066 5.846 33.9583 6.29202C33.5101 6.73805 32.9021 6.98862 32.2682 6.98862Z" fill="black"/>
<path d="M4.72332 27.4883C3.80034 27.4883 2.89808 27.7606 2.13065 28.2708C1.36322 28.7811 0.765082 29.5063 0.411872 30.3547C0.0586626 31.2032 -0.0337531 32.1368 0.146312 33.0376C0.326376 33.9383 0.770834 34.7657 1.42348 35.415C2.07613 36.0644 2.90765 36.5067 3.81289 36.6858C4.71814 36.865 5.65645 36.7731 6.50918 36.4216C7.3619 36.0702 8.09073 35.475 8.60351 34.7114C9.1163 33.9478 9.38999 33.0501 9.38999 32.1317C9.38999 30.9002 8.89833 29.7191 8.02315 28.8483C7.14798 27.9775 5.961 27.4883 4.72332 27.4883V27.4883ZM4.72332 34.4534C4.25057 34.4534 3.78844 34.3139 3.39537 34.0525C3.00229 33.7912 2.69593 33.4198 2.51502 32.9852C2.3341 32.5506 2.28677 32.0724 2.379 31.6111C2.47123 31.1497 2.69887 30.7259 3.03316 30.3933C3.36744 30.0607 3.79334 29.8342 4.257 29.7424C4.72067 29.6507 5.20126 29.6978 5.63803 29.8778C6.07479 30.0578 6.44809 30.3626 6.71073 30.7537C6.97338 31.1448 7.11356 31.6047 7.11356 32.075C7.11356 32.7058 6.86174 33.3108 6.41348 33.7568C5.96522 34.2028 5.35725 34.4534 4.72332 34.4534V34.4534Z" fill="black"/>
<path d="M32.268 13.5013C31.3215 13.4812 30.3917 13.7516 29.605 14.2756C28.8183 14.7997 28.2129 15.552 27.871 16.4304C27.529 17.3088 27.4672 18.2707 27.6939 19.1853C27.9205 20.0998 28.4247 20.9228 29.1379 21.5423L21.7964 28.9038C21.2097 28.28 20.4614 27.8293 19.6338 27.6014V22.6182C20.7378 22.342 21.7022 21.6737 22.3456 20.7393C22.9889 19.8048 23.2668 18.6686 23.1269 17.5445C22.987 16.4204 22.439 15.3859 21.586 14.6358C20.7331 13.8857 19.634 13.4717 18.4956 13.4717C17.3572 13.4717 16.2581 13.8857 15.4051 14.6358C14.5522 15.3859 14.0042 16.4204 13.8643 17.5445C13.7244 18.6686 14.0023 19.8048 14.6456 20.7393C15.289 21.6737 16.2534 22.342 17.3574 22.6182V27.6014C16.4579 27.8251 15.6457 28.3103 15.0246 28.9952C14.4034 29.68 14.0013 30.5335 13.8696 31.4467C13.7379 32.3599 13.8826 33.2914 14.2851 34.1224C14.6877 34.9534 15.33 35.6463 16.13 36.1127C16.9299 36.579 17.8514 36.7977 18.7768 36.7408C19.7022 36.6838 20.5896 36.354 21.3258 35.7931C22.062 35.2323 22.6136 34.4661 22.9103 33.592C23.2069 32.718 23.2352 31.7758 22.9915 30.8857L31.3005 22.6749L32.268 22.7881C32.9202 22.8601 33.5804 22.7944 34.2054 22.5953C34.8304 22.3962 35.4062 22.0682 35.8951 21.6327C36.3841 21.1972 36.7752 20.6639 37.043 20.0678C37.3108 19.4716 37.4492 18.826 37.4492 18.173C37.4492 17.5201 37.3108 16.8744 37.043 16.2783C36.7752 15.6821 36.3841 15.1489 35.8951 14.7134C35.4062 14.2778 34.8304 13.9498 34.2054 13.7507C33.5804 13.5516 32.9202 13.486 32.268 13.558V13.5013ZM16.1053 18.1447C16.1053 17.6743 16.2455 17.2145 16.5082 16.8234C16.7708 16.4323 17.1441 16.1274 17.5809 15.9474C18.0176 15.7674 18.4982 15.7203 18.9619 15.8121C19.4256 15.9039 19.8515 16.1304 20.1858 16.463C20.52 16.7956 20.7477 17.2194 20.8399 17.6807C20.9321 18.1421 20.8848 18.6203 20.7039 19.0549C20.523 19.4894 20.2166 19.8609 19.8235 20.1222C19.4305 20.3836 18.9683 20.523 18.4956 20.523C17.8617 20.523 17.2537 20.2725 16.8054 19.8264C16.3572 19.3804 16.1053 18.7755 16.1053 18.1447V18.1447ZM18.4956 34.4532C18.0228 34.4532 17.5607 34.3137 17.1676 34.0524C16.7746 33.7911 16.4682 33.4196 16.2873 32.985C16.1064 32.5505 16.059 32.0723 16.1513 31.6109C16.2435 31.1496 16.4712 30.7258 16.8054 30.3932C17.1397 30.0606 17.5656 29.834 18.0293 29.7423C18.4929 29.6505 18.9735 29.6976 19.4103 29.8776C19.8471 30.0576 20.2204 30.3625 20.483 30.7536C20.7457 31.1447 20.8858 31.6045 20.8858 32.0749C20.8858 32.3872 20.824 32.6965 20.7039 32.985C20.5838 33.2736 20.4077 33.5358 20.1858 33.7566C19.9638 33.9775 19.7003 34.1527 19.4103 34.2722C19.1203 34.3917 18.8095 34.4532 18.4956 34.4532V34.4532ZM32.268 20.523C31.7952 20.523 31.3331 20.3836 30.94 20.1222C30.547 19.8609 30.2406 19.4894 30.0597 19.0549C29.8788 18.6203 29.8314 18.1421 29.9237 17.6807C30.0159 17.2194 30.2435 16.7956 30.5778 16.463C30.9121 16.1304 31.338 15.9039 31.8017 15.8121C32.2653 15.7203 32.7459 15.7674 33.1827 15.9474C33.6194 16.1274 33.9928 16.4323 34.2554 16.8234C34.518 17.2145 34.6582 17.6743 34.6582 18.1447C34.6582 18.7755 34.4064 19.3804 33.9581 19.8264C33.5099 20.2725 32.9019 20.523 32.268 20.523V20.523Z" fill="black"/>
<path d="M32.2682 27.4883C31.3453 27.4883 30.443 27.7606 29.6756 28.2708C28.9081 28.7811 28.31 29.5063 27.9568 30.3547C27.6036 31.2032 27.5112 32.1368 27.6912 33.0376C27.8713 33.9383 28.3158 34.7657 28.9684 35.415C29.621 36.0644 30.4526 36.5067 31.3578 36.6858C32.2631 36.865 33.2014 36.7731 34.0541 36.4216C34.9068 36.0702 35.6357 35.475 36.1484 34.7114C36.6612 33.9478 36.9349 33.0501 36.9349 32.1317C36.9349 30.9002 36.4432 29.7191 35.5681 28.8483C34.6929 27.9775 33.5059 27.4883 32.2682 27.4883V27.4883ZM32.2682 34.4534C31.7955 34.4534 31.3334 34.3139 30.9403 34.0525C30.5472 33.7912 30.2409 33.4198 30.0599 32.9852C29.879 32.5506 29.8317 32.0724 29.9239 31.6111C30.0161 31.1497 30.2438 30.7259 30.5781 30.3933C30.9124 30.0607 31.3383 29.8342 31.8019 29.7424C32.2656 29.6507 32.7462 29.6978 33.1829 29.8778C33.6197 30.0578 33.993 30.3626 34.2557 30.7537C34.5183 31.1448 34.6585 31.6047 34.6585 32.075C34.6585 32.7058 34.4067 33.3108 33.9584 33.7568C33.5101 34.2028 32.9022 34.4534 32.2682 34.4534V34.4534Z" fill="black"/>
<path d="M9.33329 4.66738C9.33786 3.7868 9.09068 2.92307 8.62059 2.17697C8.1505 1.43087 7.47688 0.833159 6.67832 0.453565C5.87975 0.07397 4.98917 -0.0718544 4.11046 0.0331024C3.23176 0.138059 2.40117 0.48947 1.71558 1.04634C1.02999 1.60321 0.517687 2.34257 0.238423 3.17818C-0.0408414 4.01379 -0.0755469 4.91118 0.138355 5.76567C0.352257 6.62016 0.805948 7.39652 1.4465 8.00416C2.08705 8.61181 2.88804 9.02569 3.75604 9.19752V14.0674C2.63976 14.2888 1.64328 14.9085 0.954137 15.8099C0.26499 16.7113 -0.0693063 17.8322 0.0141571 18.9617C0.0976206 20.0912 0.593089 21.1515 1.40732 21.9429C2.22155 22.7343 3.29841 23.2023 4.43523 23.2588C5.57205 23.3154 6.69045 22.9566 7.57996 22.2499C8.46947 21.5433 9.06875 20.5376 9.26503 19.422C9.46132 18.3064 9.24106 17.1578 8.64572 16.1926C8.05037 15.2273 7.12099 14.5118 6.03247 14.1807V9.08427C6.98409 8.79446 7.81767 8.20954 8.4115 7.41492C9.00534 6.6203 9.32832 5.6576 9.33329 4.66738V4.66738ZM2.33328 4.66738C2.33328 4.197 2.47346 3.73717 2.73611 3.34606C2.99875 2.95495 3.37206 2.65011 3.80882 2.4701C4.24558 2.29009 4.72618 2.24299 5.18984 2.33476C5.6535 2.42653 6.0794 2.65304 6.41368 2.98566C6.74797 3.31827 6.97562 3.74205 7.06784 4.2034C7.16007 4.66475 7.11274 5.14295 6.93183 5.57753C6.75091 6.01211 6.44455 6.38355 6.05147 6.64489C5.6584 6.90622 5.19627 7.04571 4.72352 7.04571C4.08959 7.04571 3.48162 6.79513 3.03336 6.34911C2.5851 5.90309 2.33328 5.29815 2.33328 4.66738V4.66738ZM7.05686 18.5976C7.05686 19.0679 6.91668 19.5278 6.65403 19.9189C6.39139 20.31 6.01808 20.6148 5.58132 20.7948C5.14456 20.9749 4.66396 21.022 4.2003 20.9302C3.73664 20.8384 3.31074 20.6119 2.97645 20.2793C2.64217 19.9467 2.41452 19.5229 2.32229 19.0615C2.23007 18.6002 2.2774 18.122 2.45831 17.6874C2.63922 17.2528 2.94559 16.8814 3.33866 16.6201C3.73174 16.3587 4.19387 16.2192 4.66661 16.2192C5.30055 16.2192 5.90852 16.4698 6.35677 16.9158C6.80503 17.3619 7.05686 17.9668 7.05686 18.5976V18.5976Z" fill="black"/>
</svg>
